<svg width="66" height="80" viewBox="0 0 66 80" fill="none" xmlns="http://www.w3.org/2000/svg">
<path d="M17.6 13.346V54.5414C16.2234 54.0584 14.7433 53.7928 13.2 53.7928C5.90987 53.7928 0 59.6595 0 66.8964C0 74.1333 5.90987 80 13.2 80C20.4901 80 26.4 74.1333 26.4 66.8964V28.7213L57.2 19.9855V43.6218C55.8234 43.1387 54.3432 42.8732 52.8 42.8732C45.5098 42.8732 39.6 48.7398 39.6 55.9767C39.6 63.2137 45.5098 69.0804 52.8 69.0804C60.0901 69.0804 66 63.2137 66 55.9767V0L17.6 13.346Z" fill="#BDBCE1"/>
</svg>
